<svg xmlns="http://www.w3.org/2000/svg" viewBox="0 0 171.94 26.06" aria-labelledby="title"><title id="title">Smashing Newsletter Subscriber Count - Currently about 198000</title><path fill="#12110b" d="M170 22.6a1.7 1.7 0 0 0 2-1.8 2.2 2.2 0 0 0-.5-1.4 1.5 1.5 0 0 0-1.2-.5c-.6 0-1.2.4-1.8 1.4l-.4-1V19a.2.2 0 0 0-.2 0 .4.4 0 0 0-.2 0 .3.3 0 0 0-.2.2c-.6 2-1 2.8-1.4 2.8a.2.2 0 0 1-.2 0 1.3 1.3 0 0 1 0-.8 7.6 7.6 0 0 0 0-1 1 1 0 0 0-1-1 2 2 0 0 0-1.4 1.2 1.2 1.2 0 0 0-1-1.4c-.7 0-1.2 1-1.6 1.6v.2-.2V19a.4.4 0 0 0 0-.4.3.3 0 0 0-.2 0c-.3 0-.4 0-.6.5-.3 1-1 2.8-1.6 2.8a.3.3 0 0 1-.3 0 3.8 3.8 0 0 1 0-2.3c.2-.6 0-.7-.2-.8-.3 0-.4.2-.6.8-.4 1-1 2.2-1.4 2.2-.4 0-.4-.5-.4-1a6.2 6.2 0 0 0 0-1 1 1 0 0 0-.8-1c-1 0-1.4 1.3-1.7 2h-.2v-1.4c1.5-2 2.3-3.6 2.3-4.8a1 1 0 0 0-1-1.4c-.4 0-1.5.5-2 4v2c-.7 1.2-2.3 3-3.8 3s-2.5-1-2.5-3c0-2.8 2-4.5 3.3-4.5a1.2 1.2 0 0 1 .8.3 1 1 0 0 1 .2.7 1.3 1.3 0 0 1-.2.7v.2a.2.2 0 0 0 0 .2.3.3 0 0 0 .2 0 1.2 1.2 0 0 0 .8-1.2 1.7 1.7 0 0 0-1.8-1.6c-1.7 0-4 2-4 5.2 0 2.3 1.3 3.8 3.2 3.8 1.3 0 2.6-1 3.8-2.6V22a.7.7 0 0 0 .2.5.4.4 0 0 0 .4 0c.2 0 .3 0 .4-.5 0-.7.6-2.4 1.3-2.4a.3.3 0 0 1 .3 0 1.4 1.4 0 0 1 0 1 5.4 5.4 0 0 0 0 .8 1 1 0 0 0 1 1 2 2 0 0 0 1.4-1.2 1.4 1.4 0 0 0 1 1.3c.8 0 1.4-.7 2-2.3l.2-.2v2.2s0 .5.3.5a.4.4 0 0 0 .3-.3c.5-1.8 1-2.7 1.4-2.7s.5.8.5 2.2c0 .5 0 .7.3.7s.3-.2.4-.6V22c.5-1.4.8-2 1.2-2a.4.4 0 0 1 .4.5 5.6 5.6 0 0 1 0 .8 5.7 5.7 0 0 0 0 1 .8.8 0 0 0 .8.8c.7 0 1.3-1 2-2.5 0 .3 0 .6.2 1a10 10 0 0 0-1 3.2c0 1 .5 1.6 1 1.6s1.3 0 1.3-1.4a9.3 9.3 0 0 0-.4-2.3 2 2 0 0 0 1 .3zM152.8 18v-1c.3-2 .8-3.2 1.3-3.2.3 0 .4.2.4.5a8 8 0 0 1-1.7 3.8v.2zm16 7.2a.4.4 0 0 1-.4.2.4.4 0 0 1-.4-.2c-.3-.3-.3-1 0-2.4l.2-.5c.6 1.6.6 2.5.4 3zm0-4c.5-1 1-1.6 1.6-1.6a1 1 0 0 1 1 1.2 1.2 1.2 0 0 1-.5 1 1 1 0 0 1-.7.2 1.8 1.8 0 0 1-1.3-.7zM170.2 19.6zM137.2 22.4c.8 0 1.4-1 1.6-1.6a1.8 1.8 0 0 0 1.6 1.8 2.3 2.3 0 0 0 1.5-.8 1.5 1.5 0 0 0 1.2 1 1.3 1.3 0 0 0 1.2-1 .3.3 0 0 0 0-.4h-.3a1.5 1.5 0 0 1-.7.5 1 1 0 0 1-1-1 10 10 0 0 0 2-5.5c0-.7-.2-1.6-1-1.6a1.2 1.2 0 0 0-1 .3c-.6 1-1 3-1 5.4a5.5 5.5 0 0 0 .4 1.3 2 2 0 0 1-1.2 1c-1 0-1-1.6-.8-2.8a.8.8 0 0 0 0-.5.3.3 0 0 0-.3 0c-.3 0-.3 0-.5.4-.4 1-1 2.7-1.6 2.7a.5.5 0 0 1-.4-.2c-.3-.4 0-1.4 0-2.2l.2-.4a.5.5 0 0 0 0-.5.4.4 0 0 0-.4 0c-.3 0-.4 0-.5.5a1 1 0 0 0-1-.3 2 2 0 0 0-1.4 1 3 3 0 0 0-.7 2 1 1 0 0 1-.8.4.7.7 0 0 1-.6-.7l.4-4.5s-.4-1.6-1.2-1.6c-1 0-2 1.3-2.8 4l-.3.8v.4-.4l.2-2.8a3.7 3.7 0 0 0-.5-2.5 1 1 0 0 0-1-.4c-1.3 0-2 2.4-2.4 4l-.6 2.5v-.2c0-1 .4-3.4.4-4.8s-.4-2-1.4-2a1.6 1.6 0 0 0-1.2.5 2 2 0 0 0-.6 1.4.6.6 0 0 0 .3.5.2.2 0 0 0 .3-.2c.3-1 .7-1.6 1.3-1.6a.7.7 0 0 1 .5.2c.5.5.4 1.7.3 4 0 .7 0 1.5-.2 2.4v.5c0 .6 0 1 .3 1.2a.5.5 0 0 0 .6-.4c0-.5.4-1.8 1-4s1.2-3 1.8-3 .8 1 .6 3.8v2.2a2 2 0 0 0 0 1.3.3.3 0 0 0 .3 0c.3 0 .4-.3.5-.7v-.3c1.2-3 2-5.6 3-5.6a.6.6 0 0 1 .5.7c0 1.2-.5 3.5-.5 4.6a1.6 1.6 0 0 0 .3 1 1.2 1.2 0 0 0 1 .4 1.6 1.6 0 0 0 1-.5 1.2 1.2 0 0 0 1 .5 1.8 1.8 0 0 0 1.5-1.2 1 1 0 0 0 1.2 1zm6-7.8a.2.2 0 0 1 .2 0 5 5 0 0 1 0 3.3A10.8 10.8 0 0 1 142 20v-1c-.2-2.3.5-4.5 1-4.6zM136 20c-.2.8-.7 2-1.4 2a.6.6 0 0 1-.6-.7 2.3 2.3 0 0 1 .5-1.6 1 1 0 0 1 .8-.4.8.8 0 0 1 .7.5zM154 14z"/><path d="M139.7 16.4a.5.5 0 0 0 0 1 .5.5 0 0 0 0-1zM158 16.4a.5.5 0 0 0 0 1 .5.5 0 0 0 0-1z" fill="#12110b"/><rect y=".8" width="62.8" height="23.1" rx="3.6" ry="3.6" fill="#983b2a"/><rect y="1.5" width="62.8" height="22.5" rx="3" ry="3" fill="#e95c41"/><text transform="translate(9.25 16.62)" font-size="12" fill="#fff" font-family="Arial" font-weight="700">198,064</text><text transform="translate(66 10.29)" font-size="12" fill="#e95c41" font-family="Arial" font-weight="700">Subscribers</text><text transform="translate(66.63 22.55)" opacity=".8" font-size="10" fill="#12110b" font-family="Arial">powered by</text></svg>
