<svg xmlns="http://www.w3.org/2000/svg" id="Ebene_1" viewBox="0 0 100 100">
  <style>
    .st0{fill:#1D1D1B;}
  </style>
  <path d="M20.8 42.5v2.3h.2c4.2-2.5 8.5-2.7 11.1-2.7 7 0 9.3 2 10.2 2.7 1.6-.9 5.1-2.7 11-2.7 11.8 0 11.8 4.7 11.8 6.6v11h-9.5v-9.8c0-2 0-4.3-5.1-4.3-2.5 0-5.1.8-6 1.9-.8 1-1.2 1.8-1.2 3.9v8.3h-9.5v-9.4c0-2.9.1-4.7-4.9-4.7-2.5 0-5.1.7-6.1 1.7-.8.8-1.3 1.6-1.3 4.1v8.3H12V42.5h8.8zM88.1 46.3h-6.9v6.9c0 2.4 0 3.2 2.8 3.2 1.3 0 2.5-.2 3.8-.4h.3l.9 3.5c-3.3.6-7 .7-8 .7-3.1 0-7.1-.5-8.6-1.7-1.3-1.1-1.4-2.1-1.4-4.7v-7.4h-4.7v-3.6H71v-3.4l10.3-2.7v6.1h6.9v3.5zM7.3 69.4C3.5 63.7 1 56.9 1 50.1 1 42 4.2 35.4 7.4 30.8h3.8c-2.8 6.3-4.8 11.7-4.8 19.5 0 8.9 3.2 15.8 4.6 19l.1.2H7.3zM93 30.8c3.8 5.7 6.3 12.5 6.3 19.4 0 8.1-3.2 14.7-6.4 19.3h-3.8c2.8-6.3 4.8-11.7 4.8-19.5 0-8.9-3.2-15.8-4.6-19l-.1-.2H93z" class="st0"/>
  <g>
    <path d="M13 64.2h1.1v.5c.4-.3 1.1-.6 2.2-.6 1 0 1.8.2 2.1.6.3-.2.9-.6 2.3-.6 2.3 0 2.3 1 2.3 1.2v2.5h-1.2v-2.3c0-.3 0-.9-1.3-.9-.5 0-1.2.1-1.5.4-.2.2-.3.4-.3.7v2.1h-1.2v-2.3c0-.3-.1-.8-1.3-.8-.7 0-1.3.2-1.5.4-.3.3-.3.6-.3.9v1.9H13v-3.7zM25.1 65.6c.1-.5.7-1 2.1-1 .9 0 1.6.3 1.9.6.1.2.2.3.2.5h-4.2m4.1.9c-.2.2-.5.7-1.9.7-1.1 0-2.1-.4-2.2-1.2h5.5c.1-1.9-2.7-2-3.3-2-2.2 0-3.4.8-3.4 1.9 0 1.1 1.2 1.9 3.5 1.9 1.8 0 2.8-.5 3.2-1.2l-1.4-.1zM32.1 66c0-.3.1-1.4 2-1.4 1.5 0 2 .7 2 1.4 0 1.2-1.6 1.3-2 1.3-.7.1-2-.2-2-1.3m4 1.8h1.2v-5H36v1.8c-.4-.3-1.1-.5-2-.5-1.8 0-3.1.7-3.1 1.9s1.4 1.9 3.2 1.9c.3 0 1.4 0 2-.5v.4zM38.5 64.2h1.2v3.6h-1.2v-3.6m0-1.4h1.2v.7h-1.2v-.7zM45.6 66.2c0 .3-.1.6-.6.9-.6.3-1.4.3-1.8.3-1.1 0-1.5-.3-1.5-.6 0-.5 1-.6 1.7-.6.6 0 1.6-.1 2.1-.2v.2m-3.6-.9c.2-.3.4-.7 1.9-.7 1.8 0 1.8.5 1.8.9-.7.1-2.1.2-2.2.2-.8 0-2.9.2-2.9 1.1 0 .6.9 1 2.5 1 .8 0 1.7-.1 2.7-.5 0 .1.1.3.3.4h1.3c-.4-.3-.4-.6-.4-1.5v-.8c0-.6 0-1.4-2.8-1.4s-3.2.8-3.3 1.1l1.1.2zM51.5 64.9h-1.3v1.5c0 .5 0 .7.5.7.3 0 .5 0 .7-.1h.1l.2.7c-.6.1-1.3.1-1.5.1-.6 0-1.4-.1-1.6-.4-.2-.2-.3-.4-.3-1v-1.6h-.9V64h.9v-.7l2-.6V64h1.3v.9z" class="st0"/>
    <path d="M53.4 65.7c0-.5.5-.8 1.5-.8.3 0 1.4.1 1.4.8h-2.9m2.8.9c-.1.2-.3.5-1.2.5-1.1 0-1.6-.5-1.6-.9h4.9c0-1.1-.7-2.2-3.5-2.2-2.3 0-3.4.9-3.4 1.9 0 .3.1.7.4 1 .8.8 2.5.9 3.1.9 2.4 0 3-.8 3.2-1.1l-1.9-.1zM60.6 64.2v.5c.8-.5 1.7-.6 2.2-.6 1.4 0 1.9.4 2.1.6.3-.2 1-.6 2.2-.6 2.4 0 2.4 1 2.4 1.4v2.3h-1.9v-2.1c0-.4 0-.9-1-.9-.5 0-1 .2-1.2.4-.2.2-.2.4-.2.8v1.7h-1.9v-2c0-.6 0-1-1-1-.5 0-1 .1-1.2.3-.2.2-.3.3-.3.9v1.8h-1.9v-3.6h1.7zM72.4 66.1c0-.5.2-.8.7-1 .4-.2.8-.2 1-.2.7 0 1.5.2 1.5 1.1 0 .4-.2 1.2-1.6 1.2-.8-.1-1.6-.4-1.6-1.1m-1.9-1.9v5h1.9v-1.8c.3.2.9.5 2.1.5 1.6 0 3.1-.6 3.1-1.9 0-1.3-1.5-1.9-3.1-1.9-.4 0-1.5.1-2.3.6v-.5h-1.7zM78.3 62.8h1.9v5h-1.9zM82.8 65.7c0-.5.5-.8 1.5-.8.3 0 1.4.1 1.4.8h-2.9m2.8.9c-.1.2-.3.5-1.2.5-1.1 0-1.6-.5-1.6-.9h4.9c0-1.1-.7-2.2-3.5-2.2-2.3 0-3.4.9-3.4 1.9 0 .3.1.7.4 1 .8.8 2.5.9 3.1.9 2.4 0 3-.8 3.2-1.1l-1.9-.1z" class="st0"/>
    <path d="M73.1 68.5h-.2v-.1h.6v.1h-.3v.6h-.1zM73.5 68.4h.3l.1.5.1-.5h.3v.7h-.2v-.6l-.1.6h-.2l-.1-.6v.6h-.2z" class="st0"/>
  </g>
</svg>
